<svg id="visual" viewBox="0 0 960 540" width="960" height="540" xmlns="http://www.w3.org/2000/svg" xmlns:xlink="http://www.w3.org/1999/xlink" version="1.1"><g stroke-width="1" stroke-linejoin="bevel"><path d="M441 230L475 193L428 158Z" fill="#024453" stroke="#00101C"></path><path d="M554 253L539 200L475 193Z" fill="#2dca4b" stroke="#00101C"></path><path d="M475 193L574 161L428 158Z" fill="#063241" stroke="#00101C"></path><path d="M539 200L545 196L475 193Z" fill="#009380" stroke="#00101C"></path><path d="M428 158L329 160L441 230Z" fill="#007f7e" stroke="#00101C"></path><path d="M578 242L563 185L545 196Z" fill="#063241" stroke="#00101C"></path><path d="M545 196L574 161L475 193Z" fill="#006b73" stroke="#00101C"></path><path d="M329 160L362 297L441 230Z" fill="#024453" stroke="#00101C"></path><path d="M441 230L554 253L475 193Z" fill="#009380" stroke="#00101C"></path><path d="M457 327L554 253L441 230Z" fill="#00b966" stroke="#00101C"></path><path d="M539 200L578 242L545 196Z" fill="#063241" stroke="#00101C"></path><path d="M362 297L432 325L441 230Z" fill="#2dca4b" stroke="#00101C"></path><path d="M432 325L457 327L441 230Z" fill="#2dca4b" stroke="#00101C"></path><path d="M615 180L574 161L563 185Z" fill="#007f7e" stroke="#00101C"></path><path d="M563 185L574 161L545 196Z" fill="#006b73" stroke="#00101C"></path><path d="M585 297L568 251L554 253Z" fill="#063241" stroke="#00101C"></path><path d="M554 253L578 242L539 200Z" fill="#024453" stroke="#00101C"></path><path d="M568 251L578 242L554 253Z" fill="#00a778" stroke="#00101C"></path><path d="M331 82L329 160L428 158Z" fill="#00a778" stroke="#00101C"></path><path d="M331 82L318 105L329 160Z" fill="#2dca4b" stroke="#00101C"></path><path d="M407 0L331 82L428 158Z" fill="#005764" stroke="#00101C"></path><path d="M331 82L303 101L318 105Z" fill="#07212f" stroke="#00101C"></path><path d="M318 105L287 122L329 160Z" fill="#07212f" stroke="#00101C"></path><path d="M329 160L309 302L362 297Z" fill="#024453" stroke="#00101C"></path><path d="M457 327L556 310L554 253Z" fill="#007f7e" stroke="#00101C"></path><path d="M568 251L585 297L578 242Z" fill="#07212f" stroke="#00101C"></path><path d="M303 101L287 122L318 105Z" fill="#006b73" stroke="#00101C"></path><path d="M263 154L309 302L329 160Z" fill="#005764" stroke="#00101C"></path><path d="M362 297L380 359L432 325Z" fill="#024453" stroke="#00101C"></path><path d="M360 351L380 359L362 297Z" fill="#00b966" stroke="#00101C"></path><path d="M432 325L466 377L457 327Z" fill="#00b966" stroke="#00101C"></path><path d="M457 327L502 357L556 310Z" fill="#009380" stroke="#00101C"></path><path d="M466 377L502 357L457 327Z" fill="#00a778" stroke="#00101C"></path><path d="M326 348L360 351L362 297Z" fill="#00a778" stroke="#00101C"></path><path d="M578 242L615 180L563 185Z" fill="#063241" stroke="#00101C"></path><path d="M663 188L615 180L578 242Z" fill="#00101c" stroke="#00101C"></path><path d="M287 122L263 154L329 160Z" fill="#007f7e" stroke="#00101C"></path><path d="M610 301L585 297L591 381Z" fill="#00b966" stroke="#00101C"></path><path d="M556 310L585 297L554 253Z" fill="#009380" stroke="#00101C"></path><path d="M380 359L466 377L432 325Z" fill="#07212f" stroke="#00101C"></path><path d="M398 431L412 427L380 359Z" fill="#024453" stroke="#00101C"></path><path d="M380 359L412 427L466 377Z" fill="#00b966" stroke="#00101C"></path><path d="M309 302L326 348L362 297Z" fill="#00a778" stroke="#00101C"></path><path d="M471 0L428 158L535 11Z" fill="#00b966" stroke="#00101C"></path><path d="M471 0L459 0L428 158Z" fill="#00101c" stroke="#00101C"></path><path d="M459 0L407 0L428 158Z" fill="#006b73" stroke="#00101C"></path><path d="M331 82L299 43L303 101Z" fill="#063241" stroke="#00101C"></path><path d="M535 11L428 158L574 161Z" fill="#00b966" stroke="#00101C"></path><path d="M407 0L383 3L331 82Z" fill="#063241" stroke="#00101C"></path><path d="M591 381L585 297L556 310Z" fill="#00b966" stroke="#00101C"></path><path d="M585 297L610 301L578 242Z" fill="#006b73" stroke="#00101C"></path><path d="M630 303L610 301L640 348Z" fill="#2dca4b" stroke="#00101C"></path><path d="M303 101L243 97L287 122Z" fill="#024453" stroke="#00101C"></path><path d="M287 122L243 97L263 154Z" fill="#07212f" stroke="#00101C"></path><path d="M341 0L299 43L331 82Z" fill="#07212f" stroke="#00101C"></path><path d="M634 73L535 11L574 161Z" fill="#00a778" stroke="#00101C"></path><path d="M459 0L454 -19L407 0Z" fill="#00a778" stroke="#00101C"></path><path d="M407 0L454 -19L383 3Z" fill="#00a778" stroke="#00101C"></path><path d="M471 0L454 -19L459 0Z" fill="#07212f" stroke="#00101C"></path><path d="M565 -15L454 -19L471 0Z" fill="#006b73" stroke="#00101C"></path><path d="M454 -19L341 0L383 3Z" fill="#009380" stroke="#00101C"></path><path d="M383 3L341 0L331 82Z" fill="#005764" stroke="#00101C"></path><path d="M454 -19L339 0L341 0Z" fill="#07212f" stroke="#00101C"></path><path d="M341 0L339 0L299 43Z" fill="#024453" stroke="#00101C"></path><path d="M279 0L243 97L299 43Z" fill="#00a778" stroke="#00101C"></path><path d="M299 43L243 97L303 101Z" fill="#00a778" stroke="#00101C"></path><path d="M263 154L246 318L309 302Z" fill="#063241" stroke="#00101C"></path><path d="M660 121L642 116L615 180Z" fill="#00b966" stroke="#00101C"></path><path d="M615 180L642 116L574 161Z" fill="#009380" stroke="#00101C"></path><path d="M591 381L556 310L502 357Z" fill="#007f7e" stroke="#00101C"></path><path d="M610 301L630 303L578 242Z" fill="#2dca4b" stroke="#00101C"></path><path d="M634 73L553 0L535 11Z" fill="#007f7e" stroke="#00101C"></path><path d="M535 11L565 -15L471 0Z" fill="#005764" stroke="#00101C"></path><path d="M630 303L663 188L578 242Z" fill="#2dca4b" stroke="#00101C"></path><path d="M202 175L246 318L263 154Z" fill="#005764" stroke="#00101C"></path><path d="M309 302L246 318L326 348Z" fill="#024453" stroke="#00101C"></path><path d="M660 121L634 73L642 116Z" fill="#063241" stroke="#00101C"></path><path d="M642 116L634 73L574 161Z" fill="#00101c" stroke="#00101C"></path><path d="M663 188L660 121L615 180Z" fill="#063241" stroke="#00101C"></path><path d="M398 431L380 359L334 426Z" fill="#00101c" stroke="#00101C"></path><path d="M530 429L591 381L502 357Z" fill="#00a778" stroke="#00101C"></path><path d="M380 359L360 351L334 426Z" fill="#2dca4b" stroke="#00101C"></path><path d="M243 97L202 175L263 154Z" fill="#009380" stroke="#00101C"></path><path d="M334 426L360 351L326 348Z" fill="#00101c" stroke="#00101C"></path><path d="M530 429L502 357L466 377Z" fill="#007f7e" stroke="#00101C"></path><path d="M475 437L466 377L412 427Z" fill="#2dca4b" stroke="#00101C"></path><path d="M634 73L565 -15L553 0Z" fill="#07212f" stroke="#00101C"></path><path d="M553 0L565 -15L535 11Z" fill="#024453" stroke="#00101C"></path><path d="M428 512L475 437L412 427Z" fill="#009380" stroke="#00101C"></path><path d="M640 348L652 319L630 303Z" fill="#063241" stroke="#00101C"></path><path d="M630 303L652 319L663 188Z" fill="#006b73" stroke="#00101C"></path><path d="M339 0L279 0L299 43Z" fill="#063241" stroke="#00101C"></path><path d="M143 177L157 213L202 175Z" fill="#00101c" stroke="#00101C"></path><path d="M454 -19L279 0L339 0Z" fill="#2dca4b" stroke="#00101C"></path><path d="M475 437L530 429L466 377Z" fill="#006b73" stroke="#00101C"></path><path d="M677 382L640 348L591 381Z" fill="#00101c" stroke="#00101C"></path><path d="M591 381L640 348L610 301Z" fill="#2dca4b" stroke="#00101C"></path><path d="M314 432L334 426L326 348Z" fill="#00b966" stroke="#00101C"></path><path d="M262 438L314 432L326 348Z" fill="#009380" stroke="#00101C"></path><path d="M336 540L428 512L398 431Z" fill="#00a778" stroke="#00101C"></path><path d="M398 431L428 512L412 427Z" fill="#00b966" stroke="#00101C"></path><path d="M142 272L202 335L246 318Z" fill="#00b966" stroke="#00101C"></path><path d="M246 318L262 438L326 348Z" fill="#07212f" stroke="#00101C"></path><path d="M202 335L203 343L246 318Z" fill="#00101c" stroke="#00101C"></path><path d="M154 141L202 175L243 97Z" fill="#00a778" stroke="#00101C"></path><path d="M202 175L157 213L246 318Z" fill="#007f7e" stroke="#00101C"></path><path d="M202 335L187 356L203 343Z" fill="#2dca4b" stroke="#00101C"></path><path d="M660 121L699 72L634 73Z" fill="#00a778" stroke="#00101C"></path><path d="M634 73L654 -2L565 -15Z" fill="#00101c" stroke="#00101C"></path><path d="M727 87L699 72L660 121Z" fill="#2dca4b" stroke="#00101C"></path><path d="M727 87L660 121L741 109Z" fill="#2dca4b" stroke="#00101C"></path><path d="M161 25L154 141L243 97Z" fill="#006b73" stroke="#00101C"></path><path d="M657 0L654 -2L634 73Z" fill="#00a778" stroke="#00101C"></path><path d="M699 72L657 0L634 73Z" fill="#00a778" stroke="#00101C"></path><path d="M154 141L143 177L202 175Z" fill="#063241" stroke="#00101C"></path><path d="M125 319L187 356L202 335Z" fill="#00a778" stroke="#00101C"></path><path d="M142 272L246 318L157 213Z" fill="#006b73" stroke="#00101C"></path><path d="M216 416L262 438L246 318Z" fill="#07212f" stroke="#00101C"></path><path d="M216 416L246 318L203 343Z" fill="#00101c" stroke="#00101C"></path><path d="M336 540L398 431L334 426Z" fill="#07212f" stroke="#00101C"></path><path d="M640 348L677 382L652 319Z" fill="#063241" stroke="#00101C"></path><path d="M780 138L741 109L663 188Z" fill="#2dca4b" stroke="#00101C"></path><path d="M605 461L677 382L591 381Z" fill="#024453" stroke="#00101C"></path><path d="M67 232L142 272L157 213Z" fill="#00b966" stroke="#00101C"></path><path d="M126 353L189 372L187 356Z" fill="#005764" stroke="#00101C"></path><path d="M187 356L189 372L203 343Z" fill="#00101c" stroke="#00101C"></path><path d="M741 109L660 121L663 188Z" fill="#024453" stroke="#00101C"></path><path d="M699 72L751 0L657 0Z" fill="#063241" stroke="#00101C"></path><path d="M216 416L266 452L262 438Z" fill="#005764" stroke="#00101C"></path><path d="M262 438L266 452L314 432Z" fill="#006b73" stroke="#00101C"></path><path d="M760 249L663 188L652 319Z" fill="#00b966" stroke="#00101C"></path><path d="M189 372L216 416L203 343Z" fill="#063241" stroke="#00101C"></path><path d="M533 508L605 461L530 429Z" fill="#07212f" stroke="#00101C"></path><path d="M530 429L605 461L591 381Z" fill="#006b73" stroke="#00101C"></path><path d="M533 508L530 429L475 437Z" fill="#007f7e" stroke="#00101C"></path><path d="M118 300L136 288L142 272Z" fill="#005764" stroke="#00101C"></path><path d="M142 272L136 288L202 335Z" fill="#07212f" stroke="#00101C"></path><path d="M189 372L177 446L216 416Z" fill="#00101c" stroke="#00101C"></path><path d="M336 540L334 426L314 432Z" fill="#00101c" stroke="#00101C"></path><path d="M149 0L172 10L279 0Z" fill="#07212f" stroke="#00101C"></path><path d="M279 0L172 10L243 97Z" fill="#00a778" stroke="#00101C"></path><path d="M154 141L96 184L143 177Z" fill="#00a778" stroke="#00101C"></path><path d="M172 10L161 25L243 97Z" fill="#007f7e" stroke="#00101C"></path><path d="M789 281L760 249L652 319Z" fill="#00101c" stroke="#00101C"></path><path d="M468 540L533 508L475 437Z" fill="#2dca4b" stroke="#00101C"></path><path d="M605 461L696 410L677 382Z" fill="#024453" stroke="#00101C"></path><path d="M677 382L789 281L652 319Z" fill="#00101c" stroke="#00101C"></path><path d="M749 413L696 410L691 502Z" fill="#063241" stroke="#00101C"></path><path d="M118 300L125 319L136 288Z" fill="#005764" stroke="#00101C"></path><path d="M136 288L125 319L202 335Z" fill="#063241" stroke="#00101C"></path><path d="M118 300L142 272L67 232Z" fill="#00101c" stroke="#00101C"></path><path d="M96 184L157 213L143 177Z" fill="#063241" stroke="#00101C"></path><path d="M98 78L96 184L154 141Z" fill="#006b73" stroke="#00101C"></path><path d="M760 249L780 138L663 188Z" fill="#2dca4b" stroke="#00101C"></path><path d="M752 0L751 0L727 87Z" fill="#00101c" stroke="#00101C"></path><path d="M727 87L751 0L699 72Z" fill="#07212f" stroke="#00101C"></path><path d="M419 562L445 540L428 512Z" fill="#00b966" stroke="#00101C"></path><path d="M428 512L468 540L475 437Z" fill="#2dca4b" stroke="#00101C"></path><path d="M172 10L149 0L161 25Z" fill="#2dca4b" stroke="#00101C"></path><path d="M161 25L98 78L154 141Z" fill="#07212f" stroke="#00101C"></path><path d="M454 -19L149 0L279 0Z" fill="#005764" stroke="#00101C"></path><path d="M445 540L468 540L428 512Z" fill="#063241" stroke="#00101C"></path><path d="M0 352L126 353L125 319Z" fill="#063241" stroke="#00101C"></path><path d="M125 319L126 353L187 356Z" fill="#00a778" stroke="#00101C"></path><path d="M332 540L314 432L266 452Z" fill="#2dca4b" stroke="#00101C"></path><path d="M0 352L125 319L118 300Z" fill="#007f7e" stroke="#00101C"></path><path d="M149 0L133 19L161 25Z" fill="#00a778" stroke="#00101C"></path><path d="M468 540L516 540L533 508Z" fill="#2dca4b" stroke="#00101C"></path><path d="M632 540L664 500L605 461Z" fill="#00101c" stroke="#00101C"></path><path d="M454 -19L138 0L149 0Z" fill="#007f7e" stroke="#00101C"></path><path d="M149 0L138 0L133 19Z" fill="#006b73" stroke="#00101C"></path><path d="M133 19L98 78L161 25Z" fill="#005764" stroke="#00101C"></path><path d="M82 0L98 78L133 19Z" fill="#063241" stroke="#00101C"></path><path d="M445 540L484 550L468 540Z" fill="#024453" stroke="#00101C"></path><path d="M468 540L484 550L516 540Z" fill="#00a778" stroke="#00101C"></path><path d="M332 540L266 452L236 540Z" fill="#00b966" stroke="#00101C"></path><path d="M332 540L336 540L314 432Z" fill="#006b73" stroke="#00101C"></path><path d="M445 540L419 562L484 550Z" fill="#005764" stroke="#00101C"></path><path d="M749 413L789 281L677 382Z" fill="#00a778" stroke="#00101C"></path><path d="M760 249L821 174L780 138Z" fill="#007f7e" stroke="#00101C"></path><path d="M177 446L266 452L216 416Z" fill="#063241" stroke="#00101C"></path><path d="M336 540L419 562L428 512Z" fill="#00a778" stroke="#00101C"></path><path d="M139 425L177 446L189 372Z" fill="#00b966" stroke="#00101C"></path><path d="M752 0L727 87L759 0Z" fill="#00a778" stroke="#00101C"></path><path d="M657 0L751 0L654 -2Z" fill="#009380" stroke="#00101C"></path><path d="M654 -2L751 0L565 -15Z" fill="#005764" stroke="#00101C"></path><path d="M759 0L727 87L820 51Z" fill="#07212f" stroke="#00101C"></path><path d="M751 0L752 0L565 -15Z" fill="#009380" stroke="#00101C"></path><path d="M332 540L419 562L336 540Z" fill="#024453" stroke="#00101C"></path><path d="M0 125L67 232L96 184Z" fill="#00101c" stroke="#00101C"></path><path d="M96 184L67 232L157 213Z" fill="#007f7e" stroke="#00101C"></path><path d="M808 98L727 87L741 109Z" fill="#006b73" stroke="#00101C"></path><path d="M752 0L759 0L565 -15Z" fill="#005764" stroke="#00101C"></path><path d="M0 382L139 425L126 353Z" fill="#005764" stroke="#00101C"></path><path d="M126 353L139 425L189 372Z" fill="#00b966" stroke="#00101C"></path><path d="M177 446L236 540L266 452Z" fill="#00b966" stroke="#00101C"></path><path d="M664 500L696 410L605 461Z" fill="#063241" stroke="#00101C"></path><path d="M696 410L749 413L677 382Z" fill="#00b966" stroke="#00101C"></path><path d="M609 540L533 508L516 540Z" fill="#007f7e" stroke="#00101C"></path><path d="M609 540L605 461L533 508Z" fill="#009380" stroke="#00101C"></path><path d="M821 174L808 98L780 138Z" fill="#007f7e" stroke="#00101C"></path><path d="M780 138L808 98L741 109Z" fill="#00101c" stroke="#00101C"></path><path d="M849 232L821 174L760 249Z" fill="#009380" stroke="#00101C"></path><path d="M484 550L609 540L516 540Z" fill="#063241" stroke="#00101C"></path><path d="M632 540L609 540L484 550Z" fill="#00a778" stroke="#00101C"></path><path d="M419 562L632 540L484 550Z" fill="#00a778" stroke="#00101C"></path><path d="M609 540L632 540L605 461Z" fill="#024453" stroke="#00101C"></path><path d="M664 500L691 502L696 410Z" fill="#00a778" stroke="#00101C"></path><path d="M683 533L691 502L664 500Z" fill="#005764" stroke="#00101C"></path><path d="M167 540L236 540L177 446Z" fill="#07212f" stroke="#00101C"></path><path d="M332 540L236 540L419 562Z" fill="#00b966" stroke="#00101C"></path><path d="M419 562L641 540L632 540Z" fill="#009380" stroke="#00101C"></path><path d="M632 540L641 540L664 500Z" fill="#07212f" stroke="#00101C"></path><path d="M454 -19L82 0L138 0Z" fill="#006b73" stroke="#00101C"></path><path d="M138 0L82 0L133 19Z" fill="#006b73" stroke="#00101C"></path><path d="M98 78L48 79L96 184Z" fill="#005764" stroke="#00101C"></path><path d="M749 413L827 308L789 281Z" fill="#07212f" stroke="#00101C"></path><path d="M789 281L849 232L760 249Z" fill="#063241" stroke="#00101C"></path><path d="M854 307L827 308L841 361Z" fill="#006b73" stroke="#00101C"></path><path d="M82 0L48 79L98 78Z" fill="#024453" stroke="#00101C"></path><path d="M859 161L808 98L821 174Z" fill="#07212f" stroke="#00101C"></path><path d="M864 66L820 51L808 98Z" fill="#007f7e" stroke="#00101C"></path><path d="M808 98L820 51L727 87Z" fill="#007f7e" stroke="#00101C"></path><path d="M827 308L849 232L789 281Z" fill="#00101c" stroke="#00101C"></path><path d="M641 540L683 533L664 500Z" fill="#2dca4b" stroke="#00101C"></path><path d="M832 438L840 402L749 413Z" fill="#007f7e" stroke="#00101C"></path><path d="M849 232L859 161L821 174Z" fill="#00b966" stroke="#00101C"></path><path d="M827 308L854 307L849 232Z" fill="#00101c" stroke="#00101C"></path><path d="M849 232L884 258L859 161Z" fill="#2dca4b" stroke="#00101C"></path><path d="M841 361L827 308L749 413Z" fill="#005764" stroke="#00101C"></path><path d="M840 402L841 361L749 413Z" fill="#2dca4b" stroke="#00101C"></path><path d="M820 51L832 0L759 0Z" fill="#00101c" stroke="#00101C"></path><path d="M759 0L965 -17L565 -15Z" fill="#00a778" stroke="#00101C"></path><path d="M864 66L832 0L820 51Z" fill="#2dca4b" stroke="#00101C"></path><path d="M102 535L177 446L139 425Z" fill="#006b73" stroke="#00101C"></path><path d="M102 535L167 540L177 446Z" fill="#007f7e" stroke="#00101C"></path><path d="M236 540L58 560L419 562Z" fill="#063241" stroke="#00101C"></path><path d="M-2 250L0 260L67 232Z" fill="#00b966" stroke="#00101C"></path><path d="M67 232L0 260L118 300Z" fill="#024453" stroke="#00101C"></path><path d="M0 122L0 125L48 79Z" fill="#00101c" stroke="#00101C"></path><path d="M48 79L0 125L96 184Z" fill="#006b73" stroke="#00101C"></path><path d="M0 125L-2 250L67 232Z" fill="#024453" stroke="#00101C"></path><path d="M0 105L0 122L48 79Z" fill="#063241" stroke="#00101C"></path><path d="M0 125L-7 29L-2 250Z" fill="#063241" stroke="#00101C"></path><path d="M960 125L864 66L859 161Z" fill="#2dca4b" stroke="#00101C"></path><path d="M859 161L864 66L808 98Z" fill="#007f7e" stroke="#00101C"></path><path d="M-7 29L0 105L48 79Z" fill="#005764" stroke="#00101C"></path><path d="M0 122L-7 29L0 125Z" fill="#006b73" stroke="#00101C"></path><path d="M890 356L884 258L854 307Z" fill="#007f7e" stroke="#00101C"></path><path d="M854 307L884 258L849 232Z" fill="#2dca4b" stroke="#00101C"></path><path d="M832 438L749 413L804 528Z" fill="#006b73" stroke="#00101C"></path><path d="M841 361L890 356L854 307Z" fill="#07212f" stroke="#00101C"></path><path d="M832 438L847 398L840 402Z" fill="#00a778" stroke="#00101C"></path><path d="M840 402L847 398L841 361Z" fill="#063241" stroke="#00101C"></path><path d="M804 528L749 413L691 502Z" fill="#007f7e" stroke="#00101C"></path><path d="M-2 250L0 352L0 260Z" fill="#005764" stroke="#00101C"></path><path d="M0 260L0 352L118 300Z" fill="#2dca4b" stroke="#00101C"></path><path d="M82 0L-7 29L48 79Z" fill="#07212f" stroke="#00101C"></path><path d="M0 105L-7 29L0 122Z" fill="#00a778" stroke="#00101C"></path><path d="M-3 403L0 382L0 352Z" fill="#009380" stroke="#00101C"></path><path d="M0 352L0 382L126 353Z" fill="#005764" stroke="#00101C"></path><path d="M-3 403L0 352L-2 250Z" fill="#00101c" stroke="#00101C"></path><path d="M454 -19L0 0L82 0Z" fill="#07212f" stroke="#00101C"></path><path d="M82 0L0 0L-7 29Z" fill="#00a778" stroke="#00101C"></path><path d="M42 540L102 535L0 492Z" fill="#07212f" stroke="#00101C"></path><path d="M167 540L58 560L236 540Z" fill="#2dca4b" stroke="#00101C"></path><path d="M847 398L890 356L841 361Z" fill="#009380" stroke="#00101C"></path><path d="M905 367L890 356L847 398Z" fill="#007f7e" stroke="#00101C"></path><path d="M-7 29L-3 403L-2 250Z" fill="#007f7e" stroke="#00101C"></path><path d="M0 382L-3 403L139 425Z" fill="#024453" stroke="#00101C"></path><path d="M683 533L789 540L691 502Z" fill="#006b73" stroke="#00101C"></path><path d="M929 452L905 367L847 398Z" fill="#063241" stroke="#00101C"></path><path d="M641 540L789 540L683 533Z" fill="#2dca4b" stroke="#00101C"></path><path d="M419 562L789 540L641 540Z" fill="#024453" stroke="#00101C"></path><path d="M789 540L804 528L691 502Z" fill="#2dca4b" stroke="#00101C"></path><path d="M929 452L847 398L832 438Z" fill="#00101c" stroke="#00101C"></path><path d="M960 313L961 296L884 258Z" fill="#009380" stroke="#00101C"></path><path d="M884 258L960 168L859 161Z" fill="#00101c" stroke="#00101C"></path><path d="M822 540L816 523L804 528Z" fill="#063241" stroke="#00101C"></path><path d="M804 528L816 523L832 438Z" fill="#009380" stroke="#00101C"></path><path d="M960 550L822 540L789 540Z" fill="#00101c" stroke="#00101C"></path><path d="M789 540L822 540L804 528Z" fill="#07212f" stroke="#00101C"></path><path d="M816 523L835 540L832 438Z" fill="#2dca4b" stroke="#00101C"></path><path d="M961 296L960 168L884 258Z" fill="#024453" stroke="#00101C"></path><path d="M864 66L938 0L832 0Z" fill="#007f7e" stroke="#00101C"></path><path d="M960 168L960 125L859 161Z" fill="#00a778" stroke="#00101C"></path><path d="M0 492L102 535L139 425Z" fill="#024453" stroke="#00101C"></path><path d="M102 535L58 560L167 540Z" fill="#024453" stroke="#00101C"></path><path d="M960 550L835 540L822 540Z" fill="#005764" stroke="#00101C"></path><path d="M822 540L835 540L816 523Z" fill="#024453" stroke="#00101C"></path><path d="M42 540L58 560L102 535Z" fill="#005764" stroke="#00101C"></path><path d="M-3 403L0 492L139 425Z" fill="#00101c" stroke="#00101C"></path><path d="M42 540L36 540L58 560Z" fill="#009380" stroke="#00101C"></path><path d="M0 492L36 540L42 540Z" fill="#2dca4b" stroke="#00101C"></path><path d="M950 347L890 356L905 367Z" fill="#063241" stroke="#00101C"></path><path d="M960 313L884 258L890 356Z" fill="#009380" stroke="#00101C"></path><path d="M960 168L965 -17L960 125Z" fill="#00a778" stroke="#00101C"></path><path d="M960 347L950 347L960 350Z" fill="#009380" stroke="#00101C"></path><path d="M960 320L960 313L890 356Z" fill="#00a778" stroke="#00101C"></path><path d="M960 62L938 0L864 66Z" fill="#007f7e" stroke="#00101C"></path><path d="M832 0L965 -17L759 0Z" fill="#005764" stroke="#00101C"></path><path d="M950 347L960 320L890 356Z" fill="#005764" stroke="#00101C"></path><path d="M960 313L960 320L961 296Z" fill="#00a778" stroke="#00101C"></path><path d="M965 -17L960 62L960 125Z" fill="#009380" stroke="#00101C"></path><path d="M960 125L960 62L864 66Z" fill="#024453" stroke="#00101C"></path><path d="M960 320L960 347L961 296Z" fill="#009380" stroke="#00101C"></path><path d="M950 347L960 347L960 320Z" fill="#00b966" stroke="#00101C"></path><path d="M960 350L950 347L905 367Z" fill="#07212f" stroke="#00101C"></path><path d="M929 452L960 350L905 367Z" fill="#00b966" stroke="#00101C"></path><path d="M960 347L960 350L961 296Z" fill="#00a778" stroke="#00101C"></path><path d="M-3 403L0 521L0 492Z" fill="#007f7e" stroke="#00101C"></path><path d="M0 492L0 521L36 540Z" fill="#00b966" stroke="#00101C"></path><path d="M36 540L0 540L58 560Z" fill="#00101c" stroke="#00101C"></path><path d="M835 540L929 452L832 438Z" fill="#00b966" stroke="#00101C"></path><path d="M965 -17L960 0L960 62Z" fill="#2dca4b" stroke="#00101C"></path><path d="M960 62L960 0L938 0Z" fill="#005764" stroke="#00101C"></path><path d="M938 0L965 -17L832 0Z" fill="#063241" stroke="#00101C"></path><path d="M-3 403L0 540L0 521Z" fill="#07212f" stroke="#00101C"></path><path d="M0 521L0 540L36 540Z" fill="#00101c" stroke="#00101C"></path><path d="M961 296L965 -17L960 168Z" fill="#007f7e" stroke="#00101C"></path><path d="M960 0L965 -17L938 0Z" fill="#005764" stroke="#00101C"></path><path d="M565 -15L965 -17L454 -19Z" fill="#005764" stroke="#00101C"></path><path d="M960 550L960 540L835 540Z" fill="#005764" stroke="#00101C"></path><path d="M835 540L960 540L929 452Z" fill="#00a778" stroke="#00101C"></path><path d="M929 452L960 540L960 350Z" fill="#00101c" stroke="#00101C"></path><path d="M960 350L960 540L961 296Z" fill="#005764" stroke="#00101C"></path><path d="M961 296L960 550L965 -17Z" fill="#024453" stroke="#00101C"></path><path d="M419 562L960 550L789 540Z" fill="#005764" stroke="#00101C"></path><path d="M960 540L960 550L961 296Z" fill="#00b966" stroke="#00101C"></path></g></svg>