<svg id="visual" viewBox="0 0 900 300" width="900" height="300" xmlns="http://www.w3.org/2000/svg" xmlns:xlink="http://www.w3.org/1999/xlink" version="1.1"><rect x="0" y="0" width="900" height="300" fill="#001220"></rect><path d="M0 101L16.7 98.2C33.3 95.3 66.7 89.7 100 85.5C133.3 81.3 166.7 78.7 200 74.8C233.3 71 266.7 66 300 70.8C333.3 75.7 366.7 90.3 400 90.8C433.3 91.3 466.7 77.7 500 69.7C533.3 61.7 566.7 59.3 600 64.5C633.3 69.7 666.7 82.3 700 82C733.3 81.7 766.7 68.3 800 70.2C833.3 72 866.7 89 883.3 97.5L900 106L900 0L883.3 0C866.7 0 833.3 0 800 0C766.7 0 733.3 0 700 0C666.7 0 633.3 0 600 0C566.7 0 533.3 0 500 0C466.7 0 433.3 0 400 0C366.7 0 333.3 0 300 0C266.7 0 233.3 0 200 0C166.7 0 133.3 0 100 0C66.7 0 33.3 0 16.7 0L0 0Z" fill="#c62368"></path><path d="M0 77L16.7 74.5C33.3 72 66.7 67 100 65C133.3 63 166.7 64 200 67.3C233.3 70.7 266.7 76.3 300 79.7C333.3 83 366.7 84 400 79.2C433.3 74.3 466.7 63.7 500 57.2C533.3 50.7 566.7 48.3 600 54C633.3 59.7 666.7 73.3 700 80C733.3 86.7 766.7 86.3 800 80.5C833.3 74.7 866.7 63.3 883.3 57.7L900 52L900 0L883.3 0C866.7 0 833.3 0 800 0C766.7 0 733.3 0 700 0C666.7 0 633.3 0 600 0C566.7 0 533.3 0 500 0C466.7 0 433.3 0 400 0C366.7 0 333.3 0 300 0C266.7 0 233.3 0 200 0C166.7 0 133.3 0 100 0C66.7 0 33.3 0 16.7 0L0 0Z" fill="#d64043"></path><path d="M0 65L16.7 63.2C33.3 61.3 66.7 57.7 100 55.7C133.3 53.7 166.7 53.3 200 54C233.3 54.7 266.7 56.3 300 54.8C333.3 53.3 366.7 48.7 400 49.5C433.3 50.3 466.7 56.7 500 57C533.3 57.3 566.7 51.7 600 49C633.3 46.3 666.7 46.7 700 48C733.3 49.3 766.7 51.7 800 50C833.3 48.3 866.7 42.7 883.3 39.8L900 37L900 0L883.3 0C866.7 0 833.3 0 800 0C766.7 0 733.3 0 700 0C666.7 0 633.3 0 600 0C566.7 0 533.3 0 500 0C466.7 0 433.3 0 400 0C366.7 0 333.3 0 300 0C266.7 0 233.3 0 200 0C166.7 0 133.3 0 100 0C66.7 0 33.3 0 16.7 0L0 0Z" fill="#d1671c"></path><path d="M0 30L16.7 32.5C33.3 35 66.7 40 100 43C133.3 46 166.7 47 200 45.3C233.3 43.7 266.7 39.3 300 35.7C333.3 32 366.7 29 400 27.2C433.3 25.3 466.7 24.7 500 27.8C533.3 31 566.7 38 600 43.2C633.3 48.3 666.7 51.7 700 49.3C733.3 47 766.7 39 800 38.7C833.3 38.3 866.7 45.7 883.3 49.3L900 53L900 0L883.3 0C866.7 0 833.3 0 800 0C766.7 0 733.3 0 700 0C666.7 0 633.3 0 600 0C566.7 0 533.3 0 500 0C466.7 0 433.3 0 400 0C366.7 0 333.3 0 300 0C266.7 0 233.3 0 200 0C166.7 0 133.3 0 100 0C66.7 0 33.3 0 16.7 0L0 0Z" fill="#ba8c00"></path><path d="M0 35L16.7 32.2C33.3 29.3 66.7 23.7 100 20.5C133.3 17.3 166.7 16.7 200 17C233.3 17.3 266.7 18.7 300 19.3C333.3 20 366.7 20 400 20.8C433.3 21.7 466.7 23.3 500 25.5C533.3 27.7 566.7 30.3 600 32.5C633.3 34.7 666.7 36.3 700 37C733.3 37.7 766.7 37.3 800 34.5C833.3 31.7 866.7 26.3 883.3 23.7L900 21L900 0L883.3 0C866.7 0 833.3 0 800 0C766.7 0 733.3 0 700 0C666.7 0 633.3 0 600 0C566.7 0 533.3 0 500 0C466.7 0 433.3 0 400 0C366.7 0 333.3 0 300 0C266.7 0 233.3 0 200 0C166.7 0 133.3 0 100 0C66.7 0 33.3 0 16.7 0L0 0Z" fill="#8eae00"></path><path d="M0 6L16.7 7.3C33.3 8.7 66.7 11.3 100 11.3C133.3 11.3 166.7 8.7 200 10.2C233.3 11.7 266.7 17.3 300 18.5C333.3 19.7 366.7 16.3 400 13.3C433.3 10.3 466.7 7.7 500 8C533.3 8.3 566.7 11.7 600 12.7C633.3 13.7 666.7 12.3 700 11.2C733.3 10 766.7 9 800 11.5C833.3 14 866.7 20 883.3 23L900 26L900 0L883.3 0C866.7 0 833.3 0 800 0C766.7 0 733.3 0 700 0C666.7 0 633.3 0 600 0C566.7 0 533.3 0 500 0C466.7 0 433.3 0 400 0C366.7 0 333.3 0 300 0C266.7 0 233.3 0 200 0C166.7 0 133.3 0 100 0C66.7 0 33.3 0 16.7 0L0 0Z" fill="#2dca4b"></path></svg>