<svg id="visual" viewBox="0 0 960 540" width="960" height="540" xmlns="http://www.w3.org/2000/svg" xmlns:xlink="http://www.w3.org/1999/xlink" version="1.1"><rect x="0" y="0" width="960" height="540" fill="#002233"></rect><path d="M0 342L20 347.5C40 353 80 364 120 388.8C160 413.7 200 452.3 240 471C280 489.7 320 488.3 360 484.7C400 481 440 475 480 445.8C520 416.7 560 364.3 600 338.7C640 313 680 314 720 331.3C760 348.7 800 382.3 840 401.5C880 420.7 920 425.3 940 427.7L960 430L960 541L940 541C920 541 880 541 840 541C800 541 760 541 720 541C680 541 640 541 600 541C560 541 520 541 480 541C440 541 400 541 360 541C320 541 280 541 240 541C200 541 160 541 120 541C80 541 40 541 20 541L0 541Z" fill="#0066FF" stroke-linecap="round" stroke-linejoin="miter"></path></svg>